<mxfile host="Electron" agent="Mozilla/5.0 (Macintosh; Intel Mac OS X 10_15_7) AppleWebKit/537.36 (KHTML, like Gecko) draw.io/24.7.17 Chrome/128.0.6613.36 Electron/32.0.1 Safari/537.36" version="24.7.17">
  <diagram id="C5RBs43oDa-KdzZeNtuy" name="Page-1">
    <mxGraphModel dx="1194" dy="674" grid="1" gridSize="10" guides="1" tooltips="1" connect="1" arrows="1" fold="1" page="1" pageScale="1" pageWidth="827" pageHeight="1169" math="0" shadow="0">
      <root>
        <mxCell id="WIyWlLk6GJQsqaUBKTNV-0" />
        <mxCell id="WIyWlLk6GJQsqaUBKTNV-1" parent="WIyWlLk6GJQsqaUBKTNV-0" />
        <mxCell id="XKQ8hG_yHhvXkjGK8VCN-14" style="edgeStyle=orthogonalEdgeStyle;rounded=0;orthogonalLoop=1;jettySize=auto;html=1;entryX=0.5;entryY=0;entryDx=0;entryDy=0;" parent="WIyWlLk6GJQsqaUBKTNV-1" source="XKQ8hG_yHhvXkjGK8VCN-3" target="XKQ8hG_yHhvXkjGK8VCN-7" edge="1">
          <mxGeometry relative="1" as="geometry" />
        </mxCell>
        <mxCell id="XKQ8hG_yHhvXkjGK8VCN-3" value="Animal" style="swimlane;whiteSpace=wrap;html=1;" parent="WIyWlLk6GJQsqaUBKTNV-1" vertex="1">
          <mxGeometry x="340" y="240" width="210" height="200" as="geometry" />
        </mxCell>
        <mxCell id="XKQ8hG_yHhvXkjGK8VCN-4" value="-name: String&lt;div&gt;-birthDate: Date&lt;/div&gt;&lt;div&gt;-commands: List&lt;/div&gt;" style="rounded=0;whiteSpace=wrap;html=1;" parent="XKQ8hG_yHhvXkjGK8VCN-3" vertex="1">
          <mxGeometry y="20" width="210" height="100" as="geometry" />
        </mxCell>
        <mxCell id="XKQ8hG_yHhvXkjGK8VCN-6" value="+addCommand()&lt;div&gt;+ getInfo()&lt;/div&gt;" style="rounded=0;whiteSpace=wrap;html=1;" parent="XKQ8hG_yHhvXkjGK8VCN-3" vertex="1">
          <mxGeometry y="120" width="210" height="80" as="geometry" />
        </mxCell>
        <mxCell id="XKQ8hG_yHhvXkjGK8VCN-20" style="edgeStyle=orthogonalEdgeStyle;rounded=0;orthogonalLoop=1;jettySize=auto;html=1;entryX=0.5;entryY=0;entryDx=0;entryDy=0;" parent="WIyWlLk6GJQsqaUBKTNV-1" source="XKQ8hG_yHhvXkjGK8VCN-7" target="XKQ8hG_yHhvXkjGK8VCN-18" edge="1">
          <mxGeometry relative="1" as="geometry" />
        </mxCell>
        <mxCell id="XKQ8hG_yHhvXkjGK8VCN-7" value="pets" style="swimlane;whiteSpace=wrap;html=1;" parent="WIyWlLk6GJQsqaUBKTNV-1" vertex="1">
          <mxGeometry x="228" y="550" width="186" height="80" as="geometry" />
        </mxCell>
        <mxCell id="XKQ8hG_yHhvXkjGK8VCN-12" value="- type" style="rounded=0;whiteSpace=wrap;html=1;" parent="XKQ8hG_yHhvXkjGK8VCN-7" vertex="1">
          <mxGeometry y="20" width="186" height="60" as="geometry" />
        </mxCell>
        <mxCell id="XKQ8hG_yHhvXkjGK8VCN-22" style="edgeStyle=orthogonalEdgeStyle;rounded=0;orthogonalLoop=1;jettySize=auto;html=1;entryX=0.5;entryY=0;entryDx=0;entryDy=0;" parent="WIyWlLk6GJQsqaUBKTNV-1" source="XKQ8hG_yHhvXkjGK8VCN-8" target="XKQ8hG_yHhvXkjGK8VCN-17" edge="1">
          <mxGeometry relative="1" as="geometry" />
        </mxCell>
        <mxCell id="XKQ8hG_yHhvXkjGK8VCN-8" value="PackAnimal" style="swimlane;whiteSpace=wrap;html=1;" parent="WIyWlLk6GJQsqaUBKTNV-1" vertex="1">
          <mxGeometry x="470" y="550" width="170" height="80" as="geometry" />
        </mxCell>
        <mxCell id="XKQ8hG_yHhvXkjGK8VCN-13" value="- loadCapacity" style="rounded=0;whiteSpace=wrap;html=1;" parent="XKQ8hG_yHhvXkjGK8VCN-8" vertex="1">
          <mxGeometry y="20" width="170" height="60" as="geometry" />
        </mxCell>
        <mxCell id="XKQ8hG_yHhvXkjGK8VCN-15" style="edgeStyle=orthogonalEdgeStyle;rounded=0;orthogonalLoop=1;jettySize=auto;html=1;entryX=0.5;entryY=0;entryDx=0;entryDy=0;" parent="WIyWlLk6GJQsqaUBKTNV-1" source="XKQ8hG_yHhvXkjGK8VCN-6" target="XKQ8hG_yHhvXkjGK8VCN-8" edge="1">
          <mxGeometry relative="1" as="geometry" />
        </mxCell>
        <mxCell id="XKQ8hG_yHhvXkjGK8VCN-16" value="Camel" style="rounded=0;whiteSpace=wrap;html=1;" parent="WIyWlLk6GJQsqaUBKTNV-1" vertex="1">
          <mxGeometry x="600" y="700" width="120" height="60" as="geometry" />
        </mxCell>
        <mxCell id="XKQ8hG_yHhvXkjGK8VCN-17" value="Horse" style="rounded=0;whiteSpace=wrap;html=1;" parent="WIyWlLk6GJQsqaUBKTNV-1" vertex="1">
          <mxGeometry x="450" y="700" width="120" height="60" as="geometry" />
        </mxCell>
        <mxCell id="XKQ8hG_yHhvXkjGK8VCN-18" value="Cat" style="rounded=0;whiteSpace=wrap;html=1;" parent="WIyWlLk6GJQsqaUBKTNV-1" vertex="1">
          <mxGeometry x="300" y="700" width="120" height="60" as="geometry" />
        </mxCell>
        <mxCell id="XKQ8hG_yHhvXkjGK8VCN-19" value="Dog" style="rounded=0;whiteSpace=wrap;html=1;" parent="WIyWlLk6GJQsqaUBKTNV-1" vertex="1">
          <mxGeometry x="150" y="700" width="120" height="60" as="geometry" />
        </mxCell>
        <mxCell id="XKQ8hG_yHhvXkjGK8VCN-21" style="edgeStyle=orthogonalEdgeStyle;rounded=0;orthogonalLoop=1;jettySize=auto;html=1;entryX=0.5;entryY=0;entryDx=0;entryDy=0;" parent="WIyWlLk6GJQsqaUBKTNV-1" source="XKQ8hG_yHhvXkjGK8VCN-12" target="XKQ8hG_yHhvXkjGK8VCN-19" edge="1">
          <mxGeometry relative="1" as="geometry" />
        </mxCell>
        <mxCell id="XKQ8hG_yHhvXkjGK8VCN-23" style="edgeStyle=orthogonalEdgeStyle;rounded=0;orthogonalLoop=1;jettySize=auto;html=1;entryX=0.5;entryY=0;entryDx=0;entryDy=0;" parent="WIyWlLk6GJQsqaUBKTNV-1" source="XKQ8hG_yHhvXkjGK8VCN-13" target="XKQ8hG_yHhvXkjGK8VCN-16" edge="1">
          <mxGeometry relative="1" as="geometry" />
        </mxCell>
      </root>
    </mxGraphModel>
  </diagram>
</mxfile>
